<?xml version="1.0" encoding="UTF-8" standalone="no"?>
<!-- This is a Stata 18.0 generated SVG file (http://www.stata.com) -->

<svg version="1.1" width="7.500in" height="4.500in" viewBox="0 0 5400 3240" xmlns="http://www.w3.org/2000/svg" xmlns:xlink="http://www.w3.org/1999/xlink">
	<desc>Stata Graph - Graph</desc>
	<rect x="0" y="0" width="5400" height="3240" style="fill:#FFFFFF;stroke:none"/>
	<rect x="0.00" y="0.00" width="5400.00" height="3240.00" style="fill:#FFFFFF"/>
	<rect x="3.24" y="3.24" width="5393.52" height="3233.52" style="fill:none;stroke:#FFFFFF;stroke-width:6.48"/>
	<rect x="557.72" y="113.40" width="2829.43" height="2653.26" style="fill:#FFFFFF"/>
	<rect x="560.96" y="116.64" width="2822.95" height="2646.78" style="fill:none;stroke:#FFFFFF;stroke-width:6.48"/>
	<line x1="557.72" y1="2766.66" x2="622.52" y2="2766.66" style="stroke:#F0F0F0;stroke-width:9.72"/>
	<line x1="654.92" y1="2766.66" x2="719.72" y2="2766.66" style="stroke:#F0F0F0;stroke-width:9.72"/>
	<line x1="752.12" y1="2766.66" x2="816.92" y2="2766.66" style="stroke:#F0F0F0;stroke-width:9.72"/>
	<line x1="849.32" y1="2766.66" x2="914.12" y2="2766.66" style="stroke:#F0F0F0;stroke-width:9.72"/>
	<line x1="946.52" y1="2766.66" x2="1011.32" y2="2766.66" style="stroke:#F0F0F0;stroke-width:9.72"/>
	<line x1="1043.72" y1="2766.66" x2="1108.52" y2="2766.66" style="stroke:#F0F0F0;stroke-width:9.72"/>
	<line x1="1140.92" y1="2766.66" x2="1205.72" y2="2766.66" style="stroke:#F0F0F0;stroke-width:9.72"/>
	<line x1="1238.12" y1="2766.66" x2="1302.92" y2="2766.66" style="stroke:#F0F0F0;stroke-width:9.72"/>
	<line x1="1335.32" y1="2766.66" x2="1400.12" y2="2766.66" style="stroke:#F0F0F0;stroke-width:9.72"/>
	<line x1="1432.52" y1="2766.66" x2="1497.32" y2="2766.66" style="stroke:#F0F0F0;stroke-width:9.72"/>
	<line x1="1529.72" y1="2766.66" x2="1594.52" y2="2766.66" style="stroke:#F0F0F0;stroke-width:9.72"/>
	<line x1="1626.92" y1="2766.66" x2="1691.72" y2="2766.66" style="stroke:#F0F0F0;stroke-width:9.72"/>
	<line x1="1724.12" y1="2766.66" x2="1788.92" y2="2766.66" style="stroke:#F0F0F0;stroke-width:9.72"/>
	<line x1="1821.32" y1="2766.66" x2="1886.12" y2="2766.66" style="stroke:#F0F0F0;stroke-width:9.72"/>
	<line x1="1918.52" y1="2766.66" x2="1983.32" y2="2766.66" style="stroke:#F0F0F0;stroke-width:9.72"/>
	<line x1="2015.72" y1="2766.66" x2="2080.52" y2="2766.66" style="stroke:#F0F0F0;stroke-width:9.72"/>
	<line x1="2112.92" y1="2766.66" x2="2177.72" y2="2766.66" style="stroke:#F0F0F0;stroke-width:9.72"/>
	<line x1="2210.12" y1="2766.66" x2="2274.92" y2="2766.66" style="stroke:#F0F0F0;stroke-width:9.72"/>
	<line x1="2307.32" y1="2766.66" x2="2372.12" y2="2766.66" style="stroke:#F0F0F0;stroke-width:9.72"/>
	<line x1="2404.52" y1="2766.66" x2="2469.32" y2="2766.66" style="stroke:#F0F0F0;stroke-width:9.72"/>
	<line x1="2501.72" y1="2766.66" x2="2566.52" y2="2766.66" style="stroke:#F0F0F0;stroke-width:9.72"/>
	<line x1="2598.92" y1="2766.66" x2="2663.72" y2="2766.66" style="stroke:#F0F0F0;stroke-width:9.72"/>
	<line x1="2696.12" y1="2766.66" x2="2760.92" y2="2766.66" style="stroke:#F0F0F0;stroke-width:9.72"/>
	<line x1="2793.32" y1="2766.66" x2="2858.12" y2="2766.66" style="stroke:#F0F0F0;stroke-width:9.72"/>
	<line x1="2890.52" y1="2766.66" x2="2955.32" y2="2766.66" style="stroke:#F0F0F0;stroke-width:9.72"/>
	<line x1="2987.72" y1="2766.66" x2="3052.52" y2="2766.66" style="stroke:#F0F0F0;stroke-width:9.72"/>
	<line x1="3084.92" y1="2766.66" x2="3149.72" y2="2766.66" style="stroke:#F0F0F0;stroke-width:9.72"/>
	<line x1="3182.12" y1="2766.66" x2="3246.92" y2="2766.66" style="stroke:#F0F0F0;stroke-width:9.72"/>
	<line x1="3279.32" y1="2766.66" x2="3344.12" y2="2766.66" style="stroke:#F0F0F0;stroke-width:9.72"/>
	<line x1="3376.52" y1="2766.66" x2="3387.15" y2="2766.66" style="stroke:#F0F0F0;stroke-width:9.72"/>
	<line x1="557.72" y1="1906.03" x2="622.52" y2="1906.03" style="stroke:#F0F0F0;stroke-width:9.72"/>
	<line x1="654.92" y1="1906.03" x2="719.72" y2="1906.03" style="stroke:#F0F0F0;stroke-width:9.72"/>
	<line x1="752.12" y1="1906.03" x2="816.92" y2="1906.03" style="stroke:#F0F0F0;stroke-width:9.72"/>
	<line x1="849.32" y1="1906.03" x2="914.12" y2="1906.03" style="stroke:#F0F0F0;stroke-width:9.72"/>
	<line x1="946.52" y1="1906.03" x2="1011.32" y2="1906.03" style="stroke:#F0F0F0;stroke-width:9.72"/>
	<line x1="1043.72" y1="1906.03" x2="1108.52" y2="1906.03" style="stroke:#F0F0F0;stroke-width:9.72"/>
	<line x1="1140.92" y1="1906.03" x2="1205.72" y2="1906.03" style="stroke:#F0F0F0;stroke-width:9.72"/>
	<line x1="1238.12" y1="1906.03" x2="1302.92" y2="1906.03" style="stroke:#F0F0F0;stroke-width:9.72"/>
	<line x1="1335.32" y1="1906.03" x2="1400.12" y2="1906.03" style="stroke:#F0F0F0;stroke-width:9.72"/>
	<line x1="1432.52" y1="1906.03" x2="1497.32" y2="1906.03" style="stroke:#F0F0F0;stroke-width:9.72"/>
	<line x1="1529.72" y1="1906.03" x2="1594.52" y2="1906.03" style="stroke:#F0F0F0;stroke-width:9.72"/>
	<line x1="1626.92" y1="1906.03" x2="1691.72" y2="1906.03" style="stroke:#F0F0F0;stroke-width:9.72"/>
	<line x1="1724.12" y1="1906.03" x2="1788.92" y2="1906.03" style="stroke:#F0F0F0;stroke-width:9.72"/>
	<line x1="1821.32" y1="1906.03" x2="1886.12" y2="1906.03" style="stroke:#F0F0F0;stroke-width:9.72"/>
	<line x1="1918.52" y1="1906.03" x2="1983.32" y2="1906.03" style="stroke:#F0F0F0;stroke-width:9.72"/>
	<line x1="2015.72" y1="1906.03" x2="2080.52" y2="1906.03" style="stroke:#F0F0F0;stroke-width:9.72"/>
	<line x1="2112.92" y1="1906.03" x2="2177.72" y2="1906.03" style="stroke:#F0F0F0;stroke-width:9.72"/>
	<line x1="2210.12" y1="1906.03" x2="2274.92" y2="1906.03" style="stroke:#F0F0F0;stroke-width:9.72"/>
	<line x1="2307.32" y1="1906.03" x2="2372.12" y2="1906.03" style="stroke:#F0F0F0;stroke-width:9.72"/>
	<line x1="2404.52" y1="1906.03" x2="2469.32" y2="1906.03" style="stroke:#F0F0F0;stroke-width:9.72"/>
	<line x1="2501.72" y1="1906.03" x2="2566.52" y2="1906.03" style="stroke:#F0F0F0;stroke-width:9.72"/>
	<line x1="2598.92" y1="1906.03" x2="2663.72" y2="1906.03" style="stroke:#F0F0F0;stroke-width:9.72"/>
	<line x1="2696.12" y1="1906.03" x2="2760.92" y2="1906.03" style="stroke:#F0F0F0;stroke-width:9.72"/>
	<line x1="2793.32" y1="1906.03" x2="2858.12" y2="1906.03" style="stroke:#F0F0F0;stroke-width:9.72"/>
	<line x1="2890.52" y1="1906.03" x2="2955.32" y2="1906.03" style="stroke:#F0F0F0;stroke-width:9.72"/>
	<line x1="2987.72" y1="1906.03" x2="3052.52" y2="1906.03" style="stroke:#F0F0F0;stroke-width:9.72"/>
	<line x1="3084.92" y1="1906.03" x2="3149.72" y2="1906.03" style="stroke:#F0F0F0;stroke-width:9.72"/>
	<line x1="3182.12" y1="1906.03" x2="3246.92" y2="1906.03" style="stroke:#F0F0F0;stroke-width:9.72"/>
	<line x1="3279.32" y1="1906.03" x2="3344.12" y2="1906.03" style="stroke:#F0F0F0;stroke-width:9.72"/>
	<line x1="3376.52" y1="1906.03" x2="3387.15" y2="1906.03" style="stroke:#F0F0F0;stroke-width:9.72"/>
	<line x1="557.72" y1="1045.41" x2="622.52" y2="1045.41" style="stroke:#F0F0F0;stroke-width:9.72"/>
	<line x1="654.92" y1="1045.41" x2="719.72" y2="1045.41" style="stroke:#F0F0F0;stroke-width:9.72"/>
	<line x1="752.12" y1="1045.41" x2="816.92" y2="1045.41" style="stroke:#F0F0F0;stroke-width:9.72"/>
	<line x1="849.32" y1="1045.41" x2="914.12" y2="1045.41" style="stroke:#F0F0F0;stroke-width:9.72"/>
	<line x1="946.52" y1="1045.41" x2="1011.32" y2="1045.41" style="stroke:#F0F0F0;stroke-width:9.72"/>
	<line x1="1043.72" y1="1045.41" x2="1108.52" y2="1045.41" style="stroke:#F0F0F0;stroke-width:9.72"/>
	<line x1="1140.92" y1="1045.41" x2="1205.72" y2="1045.41" style="stroke:#F0F0F0;stroke-width:9.72"/>
	<line x1="1238.12" y1="1045.41" x2="1302.92" y2="1045.41" style="stroke:#F0F0F0;stroke-width:9.72"/>
	<line x1="1335.32" y1="1045.41" x2="1400.12" y2="1045.41" style="stroke:#F0F0F0;stroke-width:9.72"/>
	<line x1="1432.52" y1="1045.41" x2="1497.32" y2="1045.41" style="stroke:#F0F0F0;stroke-width:9.72"/>
	<line x1="1529.72" y1="1045.41" x2="1594.52" y2="1045.41" style="stroke:#F0F0F0;stroke-width:9.72"/>
	<line x1="1626.92" y1="1045.41" x2="1691.72" y2="1045.41" style="stroke:#F0F0F0;stroke-width:9.72"/>
	<line x1="1724.12" y1="1045.41" x2="1788.92" y2="1045.41" style="stroke:#F0F0F0;stroke-width:9.72"/>
	<line x1="1821.32" y1="1045.41" x2="1886.12" y2="1045.41" style="stroke:#F0F0F0;stroke-width:9.72"/>
	<line x1="1918.52" y1="1045.41" x2="1983.32" y2="1045.41" style="stroke:#F0F0F0;stroke-width:9.72"/>
	<line x1="2015.72" y1="1045.41" x2="2080.52" y2="1045.41" style="stroke:#F0F0F0;stroke-width:9.72"/>
	<line x1="2112.92" y1="1045.41" x2="2177.72" y2="1045.41" style="stroke:#F0F0F0;stroke-width:9.72"/>
	<line x1="2210.12" y1="1045.41" x2="2274.92" y2="1045.41" style="stroke:#F0F0F0;stroke-width:9.72"/>
	<line x1="2307.32" y1="1045.41" x2="2372.12" y2="1045.41" style="stroke:#F0F0F0;stroke-width:9.72"/>
	<line x1="2404.52" y1="1045.41" x2="2469.32" y2="1045.41" style="stroke:#F0F0F0;stroke-width:9.72"/>
	<line x1="2501.72" y1="1045.41" x2="2566.52" y2="1045.41" style="stroke:#F0F0F0;stroke-width:9.72"/>
	<line x1="2598.92" y1="1045.41" x2="2663.72" y2="1045.41" style="stroke:#F0F0F0;stroke-width:9.72"/>
	<line x1="2696.12" y1="1045.41" x2="2760.92" y2="1045.41" style="stroke:#F0F0F0;stroke-width:9.72"/>
	<line x1="2793.32" y1="1045.41" x2="2858.12" y2="1045.41" style="stroke:#F0F0F0;stroke-width:9.72"/>
	<line x1="2890.52" y1="1045.41" x2="2955.32" y2="1045.41" style="stroke:#F0F0F0;stroke-width:9.72"/>
	<line x1="2987.72" y1="1045.41" x2="3052.52" y2="1045.41" style="stroke:#F0F0F0;stroke-width:9.72"/>
	<line x1="3084.92" y1="1045.41" x2="3149.72" y2="1045.41" style="stroke:#F0F0F0;stroke-width:9.72"/>
	<line x1="3182.12" y1="1045.41" x2="3246.92" y2="1045.41" style="stroke:#F0F0F0;stroke-width:9.72"/>
	<line x1="3279.32" y1="1045.41" x2="3344.12" y2="1045.41" style="stroke:#F0F0F0;stroke-width:9.72"/>
	<line x1="3376.52" y1="1045.41" x2="3387.15" y2="1045.41" style="stroke:#F0F0F0;stroke-width:9.72"/>
	<line x1="557.72" y1="184.61" x2="622.52" y2="184.61" style="stroke:#F0F0F0;stroke-width:9.72"/>
	<line x1="654.92" y1="184.61" x2="719.72" y2="184.61" style="stroke:#F0F0F0;stroke-width:9.72"/>
	<line x1="752.12" y1="184.61" x2="816.92" y2="184.61" style="stroke:#F0F0F0;stroke-width:9.72"/>
	<line x1="849.32" y1="184.61" x2="914.12" y2="184.61" style="stroke:#F0F0F0;stroke-width:9.72"/>
	<line x1="946.52" y1="184.61" x2="1011.32" y2="184.61" style="stroke:#F0F0F0;stroke-width:9.72"/>
	<line x1="1043.72" y1="184.61" x2="1108.52" y2="184.61" style="stroke:#F0F0F0;stroke-width:9.72"/>
	<line x1="1140.92" y1="184.61" x2="1205.72" y2="184.61" style="stroke:#F0F0F0;stroke-width:9.72"/>
	<line x1="1238.12" y1="184.61" x2="1302.92" y2="184.61" style="stroke:#F0F0F0;stroke-width:9.72"/>
	<line x1="1335.32" y1="184.61" x2="1400.12" y2="184.61" style="stroke:#F0F0F0;stroke-width:9.72"/>
	<line x1="1432.52" y1="184.61" x2="1497.32" y2="184.61" style="stroke:#F0F0F0;stroke-width:9.72"/>
	<line x1="1529.72" y1="184.61" x2="1594.52" y2="184.61" style="stroke:#F0F0F0;stroke-width:9.72"/>
	<line x1="1626.92" y1="184.61" x2="1691.72" y2="184.61" style="stroke:#F0F0F0;stroke-width:9.72"/>
	<line x1="1724.12" y1="184.61" x2="1788.92" y2="184.61" style="stroke:#F0F0F0;stroke-width:9.72"/>
	<line x1="1821.32" y1="184.61" x2="1886.12" y2="184.61" style="stroke:#F0F0F0;stroke-width:9.72"/>
	<line x1="1918.52" y1="184.61" x2="1983.32" y2="184.61" style="stroke:#F0F0F0;stroke-width:9.72"/>
	<line x1="2015.72" y1="184.61" x2="2080.52" y2="184.61" style="stroke:#F0F0F0;stroke-width:9.72"/>
	<line x1="2112.92" y1="184.61" x2="2177.72" y2="184.61" style="stroke:#F0F0F0;stroke-width:9.72"/>
	<line x1="2210.12" y1="184.61" x2="2274.92" y2="184.61" style="stroke:#F0F0F0;stroke-width:9.72"/>
	<line x1="2307.32" y1="184.61" x2="2372.12" y2="184.61" style="stroke:#F0F0F0;stroke-width:9.72"/>
	<line x1="2404.52" y1="184.61" x2="2469.32" y2="184.61" style="stroke:#F0F0F0;stroke-width:9.72"/>
	<line x1="2501.72" y1="184.61" x2="2566.52" y2="184.61" style="stroke:#F0F0F0;stroke-width:9.72"/>
	<line x1="2598.92" y1="184.61" x2="2663.72" y2="184.61" style="stroke:#F0F0F0;stroke-width:9.72"/>
	<line x1="2696.12" y1="184.61" x2="2760.92" y2="184.61" style="stroke:#F0F0F0;stroke-width:9.72"/>
	<line x1="2793.32" y1="184.61" x2="2858.12" y2="184.61" style="stroke:#F0F0F0;stroke-width:9.72"/>
	<line x1="2890.52" y1="184.61" x2="2955.32" y2="184.61" style="stroke:#F0F0F0;stroke-width:9.72"/>
	<line x1="2987.72" y1="184.61" x2="3052.52" y2="184.61" style="stroke:#F0F0F0;stroke-width:9.72"/>
	<line x1="3084.92" y1="184.61" x2="3149.72" y2="184.61" style="stroke:#F0F0F0;stroke-width:9.72"/>
	<line x1="3182.12" y1="184.61" x2="3246.92" y2="184.61" style="stroke:#F0F0F0;stroke-width:9.72"/>
	<line x1="3279.32" y1="184.61" x2="3344.12" y2="184.61" style="stroke:#F0F0F0;stroke-width:9.72"/>
	<line x1="3376.52" y1="184.61" x2="3387.15" y2="184.61" style="stroke:#F0F0F0;stroke-width:9.72"/>
	<line x1="848.48" y1="2766.66" x2="848.48" y2="2701.86" style="stroke:#F0F0F0;stroke-width:9.72"/>
	<line x1="848.48" y1="2669.46" x2="848.48" y2="2604.66" style="stroke:#F0F0F0;stroke-width:9.72"/>
	<line x1="848.48" y1="2572.26" x2="848.48" y2="2507.46" style="stroke:#F0F0F0;stroke-width:9.72"/>
	<line x1="848.48" y1="2475.06" x2="848.48" y2="2410.26" style="stroke:#F0F0F0;stroke-width:9.72"/>
	<line x1="848.48" y1="2377.86" x2="848.48" y2="2313.06" style="stroke:#F0F0F0;stroke-width:9.72"/>
	<line x1="848.48" y1="2280.66" x2="848.48" y2="2215.86" style="stroke:#F0F0F0;stroke-width:9.72"/>
	<line x1="848.48" y1="2183.46" x2="848.48" y2="2118.66" style="stroke:#F0F0F0;stroke-width:9.72"/>
	<line x1="848.48" y1="2086.26" x2="848.48" y2="2021.46" style="stroke:#F0F0F0;stroke-width:9.72"/>
	<line x1="848.48" y1="1989.06" x2="848.48" y2="1924.26" style="stroke:#F0F0F0;stroke-width:9.72"/>
	<line x1="848.48" y1="1891.86" x2="848.48" y2="1827.06" style="stroke:#F0F0F0;stroke-width:9.72"/>
	<line x1="848.48" y1="1794.66" x2="848.48" y2="1729.86" style="stroke:#F0F0F0;stroke-width:9.72"/>
	<line x1="848.48" y1="1697.46" x2="848.48" y2="1632.66" style="stroke:#F0F0F0;stroke-width:9.72"/>
	<line x1="848.48" y1="1600.26" x2="848.48" y2="1535.46" style="stroke:#F0F0F0;stroke-width:9.72"/>
	<line x1="848.48" y1="1503.06" x2="848.48" y2="1438.26" style="stroke:#F0F0F0;stroke-width:9.72"/>
	<line x1="848.48" y1="1405.86" x2="848.48" y2="1341.06" style="stroke:#F0F0F0;stroke-width:9.72"/>
	<line x1="848.48" y1="1308.66" x2="848.48" y2="1243.86" style="stroke:#F0F0F0;stroke-width:9.72"/>
	<line x1="848.48" y1="1211.46" x2="848.48" y2="1146.66" style="stroke:#F0F0F0;stroke-width:9.72"/>
	<line x1="848.48" y1="1114.26" x2="848.48" y2="1049.46" style="stroke:#F0F0F0;stroke-width:9.72"/>
	<line x1="848.48" y1="1017.06" x2="848.48" y2="952.26" style="stroke:#F0F0F0;stroke-width:9.72"/>
	<line x1="848.48" y1="919.86" x2="848.48" y2="855.06" style="stroke:#F0F0F0;stroke-width:9.72"/>
	<line x1="848.48" y1="822.66" x2="848.48" y2="757.86" style="stroke:#F0F0F0;stroke-width:9.72"/>
	<line x1="848.48" y1="725.46" x2="848.48" y2="660.66" style="stroke:#F0F0F0;stroke-width:9.72"/>
	<line x1="848.48" y1="628.26" x2="848.48" y2="563.46" style="stroke:#F0F0F0;stroke-width:9.72"/>
	<line x1="848.48" y1="531.06" x2="848.48" y2="466.26" style="stroke:#F0F0F0;stroke-width:9.72"/>
	<line x1="848.48" y1="433.86" x2="848.48" y2="369.06" style="stroke:#F0F0F0;stroke-width:9.72"/>
	<line x1="848.48" y1="336.66" x2="848.48" y2="271.86" style="stroke:#F0F0F0;stroke-width:9.72"/>
	<line x1="848.48" y1="239.46" x2="848.48" y2="174.66" style="stroke:#F0F0F0;stroke-width:9.72"/>
	<line x1="848.48" y1="142.26" x2="848.48" y2="113.40" style="stroke:#F0F0F0;stroke-width:9.72"/>
	<line x1="1465.26" y1="2766.66" x2="1465.26" y2="2701.86" style="stroke:#F0F0F0;stroke-width:9.72"/>
	<line x1="1465.26" y1="2669.46" x2="1465.26" y2="2604.66" style="stroke:#F0F0F0;stroke-width:9.72"/>
	<line x1="1465.26" y1="2572.26" x2="1465.26" y2="2507.46" style="stroke:#F0F0F0;stroke-width:9.72"/>
	<line x1="1465.26" y1="2475.06" x2="1465.26" y2="2410.26" style="stroke:#F0F0F0;stroke-width:9.72"/>
	<line x1="1465.26" y1="2377.86" x2="1465.26" y2="2313.06" style="stroke:#F0F0F0;stroke-width:9.72"/>
	<line x1="1465.26" y1="2280.66" x2="1465.26" y2="2215.86" style="stroke:#F0F0F0;stroke-width:9.72"/>
	<line x1="1465.26" y1="2183.46" x2="1465.26" y2="2118.66" style="stroke:#F0F0F0;stroke-width:9.72"/>
	<line x1="1465.26" y1="2086.26" x2="1465.26" y2="2021.46" style="stroke:#F0F0F0;stroke-width:9.72"/>
	<line x1="1465.26" y1="1989.06" x2="1465.26" y2="1924.26" style="stroke:#F0F0F0;stroke-width:9.72"/>
	<line x1="1465.26" y1="1891.86" x2="1465.26" y2="1827.06" style="stroke:#F0F0F0;stroke-width:9.72"/>
	<line x1="1465.26" y1="1794.66" x2="1465.26" y2="1729.86" style="stroke:#F0F0F0;stroke-width:9.72"/>
	<line x1="1465.26" y1="1697.46" x2="1465.26" y2="1632.66" style="stroke:#F0F0F0;stroke-width:9.72"/>
	<line x1="1465.26" y1="1600.26" x2="1465.26" y2="1535.46" style="stroke:#F0F0F0;stroke-width:9.72"/>
	<line x1="1465.26" y1="1503.06" x2="1465.26" y2="1438.26" style="stroke:#F0F0F0;stroke-width:9.72"/>
	<line x1="1465.26" y1="1405.86" x2="1465.26" y2="1341.06" style="stroke:#F0F0F0;stroke-width:9.72"/>
	<line x1="1465.26" y1="1308.66" x2="1465.26" y2="1243.86" style="stroke:#F0F0F0;stroke-width:9.72"/>
	<line x1="1465.26" y1="1211.46" x2="1465.26" y2="1146.66" style="stroke:#F0F0F0;stroke-width:9.72"/>
	<line x1="1465.26" y1="1114.26" x2="1465.26" y2="1049.46" style="stroke:#F0F0F0;stroke-width:9.72"/>
	<line x1="1465.26" y1="1017.06" x2="1465.26" y2="952.26" style="stroke:#F0F0F0;stroke-width:9.72"/>
	<line x1="1465.26" y1="919.86" x2="1465.26" y2="855.06" style="stroke:#F0F0F0;stroke-width:9.72"/>
	<line x1="1465.26" y1="822.66" x2="1465.26" y2="757.86" style="stroke:#F0F0F0;stroke-width:9.72"/>
	<line x1="1465.26" y1="725.46" x2="1465.26" y2="660.66" style="stroke:#F0F0F0;stroke-width:9.72"/>
	<line x1="1465.26" y1="628.26" x2="1465.26" y2="563.46" style="stroke:#F0F0F0;stroke-width:9.72"/>
	<line x1="1465.26" y1="531.06" x2="1465.26" y2="466.26" style="stroke:#F0F0F0;stroke-width:9.72"/>
	<line x1="1465.26" y1="433.86" x2="1465.26" y2="369.06" style="stroke:#F0F0F0;stroke-width:9.72"/>
	<line x1="1465.26" y1="336.66" x2="1465.26" y2="271.86" style="stroke:#F0F0F0;stroke-width:9.72"/>
	<line x1="1465.26" y1="239.46" x2="1465.26" y2="174.66" style="stroke:#F0F0F0;stroke-width:9.72"/>
	<line x1="1465.26" y1="142.26" x2="1465.26" y2="113.40" style="stroke:#F0F0F0;stroke-width:9.72"/>
	<line x1="2082.21" y1="2766.66" x2="2082.21" y2="2701.86" style="stroke:#F0F0F0;stroke-width:9.72"/>
	<line x1="2082.21" y1="2669.46" x2="2082.21" y2="2604.66" style="stroke:#F0F0F0;stroke-width:9.72"/>
	<line x1="2082.21" y1="2572.26" x2="2082.21" y2="2507.46" style="stroke:#F0F0F0;stroke-width:9.72"/>
	<line x1="2082.21" y1="2475.06" x2="2082.21" y2="2410.26" style="stroke:#F0F0F0;stroke-width:9.72"/>
	<line x1="2082.21" y1="2377.86" x2="2082.21" y2="2313.06" style="stroke:#F0F0F0;stroke-width:9.72"/>
	<line x1="2082.21" y1="2280.66" x2="2082.21" y2="2215.86" style="stroke:#F0F0F0;stroke-width:9.72"/>
	<line x1="2082.21" y1="2183.46" x2="2082.21" y2="2118.66" style="stroke:#F0F0F0;stroke-width:9.72"/>
	<line x1="2082.21" y1="2086.26" x2="2082.21" y2="2021.46" style="stroke:#F0F0F0;stroke-width:9.72"/>
	<line x1="2082.21" y1="1989.06" x2="2082.21" y2="1924.26" style="stroke:#F0F0F0;stroke-width:9.72"/>
	<line x1="2082.21" y1="1891.86" x2="2082.21" y2="1827.06" style="stroke:#F0F0F0;stroke-width:9.72"/>
	<line x1="2082.21" y1="1794.66" x2="2082.21" y2="1729.86" style="stroke:#F0F0F0;stroke-width:9.72"/>
	<line x1="2082.21" y1="1697.46" x2="2082.21" y2="1632.66" style="stroke:#F0F0F0;stroke-width:9.72"/>
	<line x1="2082.21" y1="1600.26" x2="2082.21" y2="1535.46" style="stroke:#F0F0F0;stroke-width:9.72"/>
	<line x1="2082.21" y1="1503.06" x2="2082.21" y2="1438.26" style="stroke:#F0F0F0;stroke-width:9.72"/>
	<line x1="2082.21" y1="1405.86" x2="2082.21" y2="1341.06" style="stroke:#F0F0F0;stroke-width:9.72"/>
	<line x1="2082.21" y1="1308.66" x2="2082.21" y2="1243.86" style="stroke:#F0F0F0;stroke-width:9.72"/>
	<line x1="2082.21" y1="1211.46" x2="2082.21" y2="1146.66" style="stroke:#F0F0F0;stroke-width:9.72"/>
	<line x1="2082.21" y1="1114.26" x2="2082.21" y2="1049.46" style="stroke:#F0F0F0;stroke-width:9.72"/>
	<line x1="2082.21" y1="1017.06" x2="2082.21" y2="952.26" style="stroke:#F0F0F0;stroke-width:9.72"/>
	<line x1="2082.21" y1="919.86" x2="2082.21" y2="855.06" style="stroke:#F0F0F0;stroke-width:9.72"/>
	<line x1="2082.21" y1="822.66" x2="2082.21" y2="757.86" style="stroke:#F0F0F0;stroke-width:9.72"/>
	<line x1="2082.21" y1="725.46" x2="2082.21" y2="660.66" style="stroke:#F0F0F0;stroke-width:9.72"/>
	<line x1="2082.21" y1="628.26" x2="2082.21" y2="563.46" style="stroke:#F0F0F0;stroke-width:9.72"/>
	<line x1="2082.21" y1="531.06" x2="2082.21" y2="466.26" style="stroke:#F0F0F0;stroke-width:9.72"/>
	<line x1="2082.21" y1="433.86" x2="2082.21" y2="369.06" style="stroke:#F0F0F0;stroke-width:9.72"/>
	<line x1="2082.21" y1="336.66" x2="2082.21" y2="271.86" style="stroke:#F0F0F0;stroke-width:9.72"/>
	<line x1="2082.21" y1="239.46" x2="2082.21" y2="174.66" style="stroke:#F0F0F0;stroke-width:9.72"/>
	<line x1="2082.21" y1="142.26" x2="2082.21" y2="113.40" style="stroke:#F0F0F0;stroke-width:9.72"/>
	<line x1="2698.99" y1="2766.66" x2="2698.99" y2="2701.86" style="stroke:#F0F0F0;stroke-width:9.72"/>
	<line x1="2698.99" y1="2669.46" x2="2698.99" y2="2604.66" style="stroke:#F0F0F0;stroke-width:9.72"/>
	<line x1="2698.99" y1="2572.26" x2="2698.99" y2="2507.46" style="stroke:#F0F0F0;stroke-width:9.72"/>
	<line x1="2698.99" y1="2475.06" x2="2698.99" y2="2410.26" style="stroke:#F0F0F0;stroke-width:9.72"/>
	<line x1="2698.99" y1="2377.86" x2="2698.99" y2="2313.06" style="stroke:#F0F0F0;stroke-width:9.72"/>
	<line x1="2698.99" y1="2280.66" x2="2698.99" y2="2215.86" style="stroke:#F0F0F0;stroke-width:9.72"/>
	<line x1="2698.99" y1="2183.46" x2="2698.99" y2="2118.66" style="stroke:#F0F0F0;stroke-width:9.72"/>
	<line x1="2698.99" y1="2086.26" x2="2698.99" y2="2021.46" style="stroke:#F0F0F0;stroke-width:9.72"/>
	<line x1="2698.99" y1="1989.06" x2="2698.99" y2="1924.26" style="stroke:#F0F0F0;stroke-width:9.72"/>
	<line x1="2698.99" y1="1891.86" x2="2698.99" y2="1827.06" style="stroke:#F0F0F0;stroke-width:9.72"/>
	<line x1="2698.99" y1="1794.66" x2="2698.99" y2="1729.86" style="stroke:#F0F0F0;stroke-width:9.72"/>
	<line x1="2698.99" y1="1697.46" x2="2698.99" y2="1632.66" style="stroke:#F0F0F0;stroke-width:9.72"/>
	<line x1="2698.99" y1="1600.26" x2="2698.99" y2="1535.46" style="stroke:#F0F0F0;stroke-width:9.72"/>
	<line x1="2698.99" y1="1503.06" x2="2698.99" y2="1438.26" style="stroke:#F0F0F0;stroke-width:9.72"/>
	<line x1="2698.99" y1="1405.86" x2="2698.99" y2="1341.06" style="stroke:#F0F0F0;stroke-width:9.72"/>
	<line x1="2698.99" y1="1308.66" x2="2698.99" y2="1243.86" style="stroke:#F0F0F0;stroke-width:9.72"/>
	<line x1="2698.99" y1="1211.46" x2="2698.99" y2="1146.66" style="stroke:#F0F0F0;stroke-width:9.72"/>
	<line x1="2698.99" y1="1114.26" x2="2698.99" y2="1049.46" style="stroke:#F0F0F0;stroke-width:9.72"/>
	<line x1="2698.99" y1="1017.06" x2="2698.99" y2="952.26" style="stroke:#F0F0F0;stroke-width:9.72"/>
	<line x1="2698.99" y1="919.86" x2="2698.99" y2="855.06" style="stroke:#F0F0F0;stroke-width:9.72"/>
	<line x1="2698.99" y1="822.66" x2="2698.99" y2="757.86" style="stroke:#F0F0F0;stroke-width:9.72"/>
	<line x1="2698.99" y1="725.46" x2="2698.99" y2="660.66" style="stroke:#F0F0F0;stroke-width:9.72"/>
	<line x1="2698.99" y1="628.26" x2="2698.99" y2="563.46" style="stroke:#F0F0F0;stroke-width:9.72"/>
	<line x1="2698.99" y1="531.06" x2="2698.99" y2="466.26" style="stroke:#F0F0F0;stroke-width:9.72"/>
	<line x1="2698.99" y1="433.86" x2="2698.99" y2="369.06" style="stroke:#F0F0F0;stroke-width:9.72"/>
	<line x1="2698.99" y1="336.66" x2="2698.99" y2="271.86" style="stroke:#F0F0F0;stroke-width:9.72"/>
	<line x1="2698.99" y1="239.46" x2="2698.99" y2="174.66" style="stroke:#F0F0F0;stroke-width:9.72"/>
	<line x1="2698.99" y1="142.26" x2="2698.99" y2="113.40" style="stroke:#F0F0F0;stroke-width:9.72"/>
	<line x1="3315.94" y1="2766.66" x2="3315.94" y2="2701.86" style="stroke:#F0F0F0;stroke-width:9.72"/>
	<line x1="3315.94" y1="2669.46" x2="3315.94" y2="2604.66" style="stroke:#F0F0F0;stroke-width:9.72"/>
	<line x1="3315.94" y1="2572.26" x2="3315.94" y2="2507.46" style="stroke:#F0F0F0;stroke-width:9.72"/>
	<line x1="3315.94" y1="2475.06" x2="3315.94" y2="2410.26" style="stroke:#F0F0F0;stroke-width:9.72"/>
	<line x1="3315.94" y1="2377.86" x2="3315.94" y2="2313.06" style="stroke:#F0F0F0;stroke-width:9.72"/>
	<line x1="3315.94" y1="2280.66" x2="3315.94" y2="2215.86" style="stroke:#F0F0F0;stroke-width:9.72"/>
	<line x1="3315.94" y1="2183.46" x2="3315.94" y2="2118.66" style="stroke:#F0F0F0;stroke-width:9.72"/>
	<line x1="3315.94" y1="2086.26" x2="3315.94" y2="2021.46" style="stroke:#F0F0F0;stroke-width:9.72"/>
	<line x1="3315.94" y1="1989.06" x2="3315.94" y2="1924.26" style="stroke:#F0F0F0;stroke-width:9.72"/>
	<line x1="3315.94" y1="1891.86" x2="3315.94" y2="1827.06" style="stroke:#F0F0F0;stroke-width:9.72"/>
	<line x1="3315.94" y1="1794.66" x2="3315.94" y2="1729.86" style="stroke:#F0F0F0;stroke-width:9.72"/>
	<line x1="3315.94" y1="1697.46" x2="3315.94" y2="1632.66" style="stroke:#F0F0F0;stroke-width:9.72"/>
	<line x1="3315.94" y1="1600.26" x2="3315.94" y2="1535.46" style="stroke:#F0F0F0;stroke-width:9.72"/>
	<line x1="3315.94" y1="1503.06" x2="3315.94" y2="1438.26" style="stroke:#F0F0F0;stroke-width:9.72"/>
	<line x1="3315.94" y1="1405.86" x2="3315.94" y2="1341.06" style="stroke:#F0F0F0;stroke-width:9.72"/>
	<line x1="3315.94" y1="1308.66" x2="3315.94" y2="1243.86" style="stroke:#F0F0F0;stroke-width:9.72"/>
	<line x1="3315.94" y1="1211.46" x2="3315.94" y2="1146.66" style="stroke:#F0F0F0;stroke-width:9.72"/>
	<line x1="3315.94" y1="1114.26" x2="3315.94" y2="1049.46" style="stroke:#F0F0F0;stroke-width:9.72"/>
	<line x1="3315.94" y1="1017.06" x2="3315.94" y2="952.26" style="stroke:#F0F0F0;stroke-width:9.72"/>
	<line x1="3315.94" y1="919.86" x2="3315.94" y2="855.06" style="stroke:#F0F0F0;stroke-width:9.72"/>
	<line x1="3315.94" y1="822.66" x2="3315.94" y2="757.86" style="stroke:#F0F0F0;stroke-width:9.72"/>
	<line x1="3315.94" y1="725.46" x2="3315.94" y2="660.66" style="stroke:#F0F0F0;stroke-width:9.72"/>
	<line x1="3315.94" y1="628.26" x2="3315.94" y2="563.46" style="stroke:#F0F0F0;stroke-width:9.72"/>
	<line x1="3315.94" y1="531.06" x2="3315.94" y2="466.26" style="stroke:#F0F0F0;stroke-width:9.72"/>
	<line x1="3315.94" y1="433.86" x2="3315.94" y2="369.06" style="stroke:#F0F0F0;stroke-width:9.72"/>
	<line x1="3315.94" y1="336.66" x2="3315.94" y2="271.86" style="stroke:#F0F0F0;stroke-width:9.72"/>
	<line x1="3315.94" y1="239.46" x2="3315.94" y2="174.66" style="stroke:#F0F0F0;stroke-width:9.72"/>
	<line x1="3315.94" y1="142.26" x2="3315.94" y2="113.40" style="stroke:#F0F0F0;stroke-width:9.72"/>
	<rect x="855.23" y="1984.16" width="452.25" height="782.49" style="fill:#FF8C19;fill-opacity:0.40"/>
	<rect x="857.66" y="1986.59" width="447.39" height="777.63" style="fill:none;stroke:#5FAAFF;stroke-width:4.86"/>
	<rect x="1307.47" y="1788.58" width="452.42" height="978.08" style="fill:#FF8C19;fill-opacity:0.40"/>
	<rect x="1309.91" y="1791.01" width="447.56" height="973.22" style="fill:none;stroke:#5FAAFF;stroke-width:4.86"/>
	<rect x="1759.89" y="1006.09" width="452.25" height="1760.57" style="fill:#FF8C19;fill-opacity:0.40"/>
	<rect x="1762.32" y="1008.52" width="447.39" height="1755.71" style="fill:none;stroke:#5FAAFF;stroke-width:4.86"/>
	<rect x="2212.14" y="1006.09" width="452.25" height="1760.57" style="fill:#FF8C19;fill-opacity:0.40"/>
	<rect x="2214.57" y="1008.52" width="447.39" height="1755.71" style="fill:none;stroke:#5FAAFF;stroke-width:4.86"/>
	<rect x="2664.39" y="2179.74" width="452.42" height="586.91" style="fill:#FF8C19;fill-opacity:0.40"/>
	<rect x="2666.82" y="2182.17" width="447.56" height="582.05" style="fill:none;stroke:#5FAAFF;stroke-width:4.86"/>
	<path d=" M855.06 2521.46 L862.65 2514.71 L870.24 2507.96 L877.84 2500.88 L885.43 2493.79 L892.86 2486.53 L900.45 2479.28 L908.04 2471.68 L915.64 2463.92 L923.23 2456.16 L930.83 2448.23 L938.25 2440.13 L945.84 2431.86 L953.44 2423.42 L961.03 2414.81 L968.63 2406.21 L976.22 2397.26 L983.64 2388.32 L991.24 2379.21 L998.83 2369.93 L1006.43 2360.48 L1014.02 2350.86 L1021.44 2341.07 L1029.04 2331.11 L1036.63 2321.16 L1044.22 2310.86 L1051.82 2300.57 L1059.41 2290.11 L1066.84 2279.31 L1074.43 2268.51 L1082.03 2257.54 L1089.62 2246.57 L1097.21 2235.26 L1104.64 2223.96 L1112.23 2212.31 L1119.83 2200.67 L1127.42 2188.86 L1135.01 2176.88 L1142.61 2164.89 L1150.03 2152.57 L1157.63 2140.26 L1165.22 2127.77 L1172.81 2115.11 L1180.41 2102.29 L1188.00 2089.46 L1195.43 2076.30 L1203.02 2063.31 L1210.61 2049.98 L1218.21 2036.64 L1225.80 2023.14 L1233.22 2009.48 L1240.82 1995.64 L1248.41 1981.80 L1256.01 1967.96 L1263.60 1953.96 L1271.19 1939.78 L1278.62 1925.44 L1286.21 1911.26 L1293.81 1896.75 L1301.40 1882.24 L1308.99 1867.73 L1316.59 1853.04 L1324.01 1838.36 L1331.61 1823.51 L1339.20 1808.66 L1346.79 1793.81 L1354.39 1778.79 L1361.81 1763.78 L1369.41 1748.59 L1377.00 1733.57 L1384.59 1718.38 L1392.19 1703.19 L1399.78 1688.01 L1407.21 1672.82 L1414.80 1657.63 L1422.39 1642.28 L1429.99 1627.09 L1437.58 1611.73 L1445.01 1596.54 L1452.60 1581.36 L1460.19 1566.17 L1467.79 1550.81 L1475.38 1535.79 L1482.98 1520.61 L1490.40 1505.42 L1497.99 1490.40 L1505.59 1475.38 L1513.18 1460.53 L1520.78 1445.68 L1528.37 1430.83 L1535.79 1416.15 L1543.39 1401.47 L1550.98 1386.96 L1558.58 1372.44 L1566.17 1358.10 L1573.59 1343.93 L1581.19 1329.75 L1588.78 1315.74 L1596.38 1301.91 L1603.97 1288.07 L1611.56 1274.40 L1618.99 1261.07 L1626.58 1247.74 L1634.18 1234.58 L1641.77 1221.58 L1649.36 1208.76 L1656.96 1196.10 L1664.38 1183.61 L1671.98 1171.29 L1679.57 1159.31 L1687.16 1147.33 L1694.76 1135.69 L1702.18 1124.21 L1709.78 1112.91 L1717.37 1101.94 L1724.96 1091.14 L1732.56 1080.51 L1740.15 1070.21 L1747.58 1060.09 L1755.17 1050.30 L1762.76 1040.68 L1770.36 1031.40 L1777.95 1022.29 L1785.38 1013.51 L1792.97 1004.91 L1800.56 996.64 L1808.16 988.71 L1815.75 980.94 L1823.34 973.69 L1830.77 966.43 L1838.36 959.68 L1845.96 953.27 L1853.55 947.03 L1861.14 941.12 L1868.74 935.55 L1876.16 930.15 L1883.76 925.26 L1891.35 920.70 L1898.94 916.31 L1906.54 912.26 L1913.96 908.55 L1921.56 905.34 L1929.15 902.31 L1936.74 899.61 L1944.34 897.24 L1951.93 895.22 L1959.36 893.53 L1966.95 892.18 L1974.54 891.17 L1982.14 890.49 L1989.73 890.16 L1997.33 890.16 L2004.75 890.49 L2012.34 891.17 L2019.94 892.18 L2027.53 893.53 L2035.13 895.22 L2042.55 897.24 L2050.14 899.44 L2057.74 902.14 L2065.33 905.18 L2072.93 908.55 L2080.52 912.26 L2087.94 916.14 L2095.54 920.53 L2103.13 925.09 L2110.73 930.15 L2118.32 935.38 L2125.74 940.95 L2133.34 946.86 L2140.93 953.10 L2148.53 959.51 L2156.12 966.26 L2163.71 973.35 L2171.14 980.78 L2178.73 988.54 L2186.32 996.47 L2193.92 1004.74 L2201.51 1013.18 L2209.11 1021.95 L2216.53 1031.06 L2224.13 1040.34 L2231.72 1049.96 L2239.31 1059.92 L2246.91 1069.88 L2254.33 1080.17 L2261.93 1090.80 L2269.52 1101.60 L2277.11 1112.57 L2284.71 1123.88 L2292.30 1135.35 L2299.73 1146.99 L2307.32 1158.97 L2314.91 1170.96 L2322.51 1183.28 L2330.10 1195.76 L2337.69 1208.42 L2345.12 1221.24 L2352.71 1234.24 L2360.31 1247.40 L2367.90 1260.73 L2375.49 1274.06 L2382.92 1287.73 L2390.51 1301.57 L2398.11 1315.41 L2405.70 1329.41 L2413.29 1343.59 L2420.89 1357.76 L2428.31 1372.11 L2435.91 1386.62 L2443.50 1401.13 L2451.09 1415.81 L2458.69 1430.49 L2466.11 1445.34 L2473.71 1460.19 L2481.30 1475.04 L2488.89 1490.06 L2496.49 1505.08 L2504.08 1520.27 L2511.51 1535.29 L2519.10 1550.48 L2526.69 1565.66 L2534.29 1580.85 L2541.88 1596.21 L2549.48 1611.39 L2556.90 1626.58 L2564.49 1641.94 L2572.09 1657.13 L2579.68 1672.48 L2587.28 1687.67 L2594.70 1702.86 L2602.29 1718.04 L2609.89 1733.23 L2617.48 1748.25 L2625.08 1763.27 L2632.67 1778.46 L2640.09 1793.31 L2647.69 1808.33 L2655.28 1823.18 L2662.88 1837.86 L2670.47 1852.71 L2678.06 1867.39 L2685.49 1881.90 L2693.08 1896.41 L2700.68 1910.76 L2708.27 1925.10 L2715.86 1939.44 L2723.29 1953.62 L2730.88 1967.63 L2738.48 1981.46 L2746.07 1995.30 L2753.66 2009.14 L2761.26 2022.81 L2768.68 2036.31 L2776.28 2049.64 L2783.87 2062.97 L2791.46 2075.96 L2799.06 2089.13 L2806.48 2101.95 L2814.08 2114.78 L2821.67 2127.43 L2829.26 2139.92 L2836.86 2152.24 L2844.45 2164.56 L2851.88 2176.54 L2859.47 2188.52 L2867.06 2200.33 L2874.66 2212.14 L2882.25 2223.62 L2889.84 2234.93 L2897.27 2246.23 L2904.86 2257.37 L2912.46 2268.34 L2920.05 2279.14 L2927.64 2289.77 L2935.07 2300.23 L2942.66 2310.69 L2950.26 2320.82 L2957.85 2330.94 L2965.44 2340.73 L2973.04 2350.52 L2980.46 2360.14 L2988.06 2369.59 L2995.65 2378.87 L3003.24 2388.15 L3010.84 2397.09 L3018.43 2405.87 L3025.86 2414.64 L3033.45 2423.25 L3041.04 2431.69 L3048.64 2439.79 L3056.23 2448.06 L3063.66 2455.99 L3071.25 2463.75 L3078.84 2471.51 L3086.44 2478.94 L3094.03 2486.36 L3101.63 2493.62 L3109.05 2500.71 L3116.64 2507.79" stroke-linejoin="round" style="fill:none;stroke:#000000;stroke-width:9.72"/>
	<rect x="1011.66" y="2497.50" width="328.72" height="269.16" style="fill:#198DFF;fill-opacity:0.50"/>
	<rect x="1014.09" y="2499.93" width="323.86" height="264.30" style="fill:none;stroke:#5FAAFF;stroke-width:4.86"/>
	<rect x="1340.38" y="1420.71" width="328.73" height="1345.95" style="fill:#198DFF;fill-opacity:0.50"/>
	<rect x="1342.81" y="1423.14" width="323.87" height="1341.09" style="fill:none;stroke:#5FAAFF;stroke-width:4.86"/>
	<rect x="1669.11" y="882.22" width="328.72" height="1884.43" style="fill:#198DFF;fill-opacity:0.50"/>
	<rect x="1671.54" y="884.65" width="323.86" height="1879.57" style="fill:none;stroke:#5FAAFF;stroke-width:4.86"/>
	<rect x="1997.83" y="613.07" width="328.73" height="2153.59" style="fill:#198DFF;fill-opacity:0.50"/>
	<rect x="2000.26" y="615.50" width="323.87" height="2148.73" style="fill:none;stroke:#5FAAFF;stroke-width:4.86"/>
	<rect x="2326.56" y="343.91" width="328.56" height="2422.74" style="fill:#198DFF;fill-opacity:0.50"/>
	<rect x="2328.99" y="346.34" width="323.70" height="2417.88" style="fill:none;stroke:#5FAAFF;stroke-width:4.86"/>
	<line x1="557.72" y1="2766.66" x2="557.72" y2="113.40" style="stroke:#000000;stroke-width:6.48"/>
	<line x1="557.72" y1="2766.66" x2="512.83" y2="2766.66" style="stroke:#000000;stroke-width:6.48"/>
	<text x="490.22" y="2806.09" style="font-family:'Helvetica';font-size:112.56px;fill:#000000" text-anchor="end">0</text>
	<line x1="557.72" y1="1906.03" x2="512.83" y2="1906.03" style="stroke:#000000;stroke-width:6.48"/>
	<text x="490.22" y="1945.47" style="font-family:'Helvetica';font-size:112.56px;fill:#000000" text-anchor="end">.01</text>
	<line x1="557.72" y1="1045.41" x2="512.83" y2="1045.41" style="stroke:#000000;stroke-width:6.48"/>
	<text x="490.22" y="1084.84" style="font-family:'Helvetica';font-size:112.56px;fill:#000000" text-anchor="end">.02</text>
	<line x1="557.72" y1="184.61" x2="512.83" y2="184.61" style="stroke:#000000;stroke-width:6.48"/>
	<text x="490.22" y="224.05" style="font-family:'Helvetica';font-size:112.56px;fill:#000000" text-anchor="end">.03</text>
	<text x="214.55" y="1439.94" style="font-family:'Helvetica';font-size:112.56px;fill:#000000" transform="rotate(-90 214.55,1439.94)" text-anchor="middle">Density</text>
	<line x1="557.72" y1="2766.66" x2="3387.15" y2="2766.66" style="stroke:#000000;stroke-width:6.48"/>
	<line x1="848.48" y1="2766.66" x2="848.48" y2="2811.54" style="stroke:#000000;stroke-width:6.48"/>
	<text x="848.48" y="2912.86" style="font-family:'Helvetica';font-size:112.56px;fill:#000000" text-anchor="middle">20</text>
	<line x1="1465.26" y1="2766.66" x2="1465.26" y2="2811.54" style="stroke:#000000;stroke-width:6.48"/>
	<text x="1465.26" y="2912.86" style="font-family:'Helvetica';font-size:112.56px;fill:#000000" text-anchor="middle">40</text>
	<line x1="2082.21" y1="2766.66" x2="2082.21" y2="2811.54" style="stroke:#000000;stroke-width:6.48"/>
	<text x="2082.21" y="2912.86" style="font-family:'Helvetica';font-size:112.56px;fill:#000000" text-anchor="middle">60</text>
	<line x1="2698.99" y1="2766.66" x2="2698.99" y2="2811.54" style="stroke:#000000;stroke-width:6.48"/>
	<text x="2698.99" y="2912.86" style="font-family:'Helvetica';font-size:112.56px;fill:#000000" text-anchor="middle">80</text>
	<line x1="3315.94" y1="2766.66" x2="3315.94" y2="2811.54" style="stroke:#000000;stroke-width:6.48"/>
	<text x="3315.94" y="2912.86" style="font-family:'Helvetica';font-size:112.56px;fill:#000000" text-anchor="middle">100</text>
	<text x="1972.52" y="3070.31" style="font-family:'Helvetica';font-size:112.56px;fill:#000000" text-anchor="middle">age</text>
	<rect x="3425.96" y="1177.71" width="1821.83" height="524.64" style="fill:#FFFFFF"/>
	<rect x="3429.20" y="1180.95" width="1815.35" height="518.16" style="fill:none;stroke:#FFFFFF;stroke-width:6.48"/>
	<rect x="3474.56" y="1226.31" width="259.20" height="112.39" style="fill:#FF8C19;fill-opacity:0.40"/>
	<rect x="3476.99" y="1228.74" width="254.34" height="107.53" style="fill:none;stroke:#5FAAFF;stroke-width:4.86"/>
	<line x1="3474.56" y1="1439.94" x2="3733.76" y2="1439.94" style="stroke:#000000;stroke-width:9.72"/>
	<rect x="3474.56" y="1541.19" width="259.20" height="112.56" style="fill:#198DFF;fill-opacity:0.50"/>
	<rect x="3476.99" y="1543.62" width="254.34" height="107.70" style="fill:none;stroke:#5FAAFF;stroke-width:4.86"/>
	<text x="3801.26" y="1321.94" style="font-family:'Helvetica';font-size:112.56px;fill:#000000">Sampled from Normal</text>
	<text x="3801.26" y="1479.38" style="font-family:'Helvetica';font-size:112.56px;fill:#000000">Theoretical Normal</text>
	<text x="3801.26" y="1636.99" style="font-family:'Helvetica';font-size:112.56px;fill:#000000">Sampled from t-distribution</text>
</svg>
